<?xml version="1.0" standalone="no"?>
<!DOCTYPE svg PUBLIC "-//W3C//DTD SVG 20010904//EN"
 "http://www.w3.org/TR/2001/REC-SVG-20010904/DTD/svg10.dtd">
<svg version="1.0" xmlns="http://www.w3.org/2000/svg"
 width="1280.000000pt" height="640.000000pt" viewBox="0 0 1280.000000 640.000000"
 preserveAspectRatio="xMidYMid meet">
<metadata>
Created by potrace 1.15, written by Peter Selinger 2001-2017
</metadata>
<g transform="translate(0.000000,640.000000) scale(0.100000,-0.100000)"
fill="#000000" stroke="none">
<path d="M11100 6343 c-53 -27 -77 -72 -85 -155 -8 -82 -29 -156 -105 -368
-28 -80 -74 -221 -101 -315 -96 -327 -203 -619 -300 -822 -62 -129 -109 -197
-319 -453 -147 -180 -269 -338 -359 -465 -147 -206 -176 -228 -391 -300 -308
-102 -433 -119 -1140 -150 -492 -22 -557 -31 -698 -96 l-82 -38 -88 81 c-163
153 -333 323 -369 371 -19 26 -47 80 -62 120 -33 89 -73 151 -186 292 -49 61
-113 149 -144 197 -31 47 -99 153 -151 235 -116 180 -310 441 -376 504 -114
109 -552 414 -749 522 -206 113 -439 204 -700 272 -264 70 -397 81 -745 65
-290 -13 -405 -24 -520 -50 -47 -10 -116 -22 -155 -26 -95 -9 -179 -40 -385
-143 -284 -142 -580 -323 -765 -466 -273 -212 -589 -646 -729 -1000 -41 -105
-174 -555 -206 -700 -27 -122 -29 -256 -6 -565 52 -696 83 -822 274 -1112 39
-59 83 -128 97 -155 l26 -48 -43 -39 c-24 -21 -117 -88 -208 -149 -91 -61
-213 -145 -271 -188 -120 -89 -284 -191 -544 -339 -284 -162 -481 -295 -506
-343 -20 -36 1 -42 275 -77 88 -11 243 -38 345 -61 221 -47 396 -74 581 -89
339 -27 394 -32 530 -51 80 -11 251 -43 380 -70 427 -91 538 -97 760 -44 91
22 139 28 230 28 120 0 189 -13 375 -69 87 -26 99 -27 385 -32 397 -6 859 19
1151 63 53 8 143 30 200 49 139 46 187 53 542 76 882 58 1021 87 1313 276 47
29 101 62 122 73 80 41 251 84 597 151 522 102 921 197 1006 241 167 84 489
349 989 814 473 440 534 488 842 669 295 174 466 344 664 661 85 136 173 226
274 280 91 49 160 112 160 146 0 90 -109 102 -232 27 l-51 -32 -18 23 c-28 35
-26 143 5 224 86 230 315 541 751 1022 218 241 321 331 449 395 134 66 191
161 155 257 -37 98 -177 147 -274 96 -48 -25 -102 -81 -140 -143 -88 -143
-500 -590 -828 -898 -173 -163 -279 -248 -360 -288 -70 -36 -92 -28 -112 41
-19 64 -19 64 -150 68 l-90 2 -6 37 c-12 78 11 193 138 678 115 440 225 774
330 1002 68 149 61 221 -25 271 -47 27 -129 32 -172 10z m-6698 -710 c60 -27
136 -99 195 -185 18 -26 51 -59 74 -73 23 -15 70 -54 106 -87 50 -47 70 -59
91 -56 30 3 38 22 47 110 8 72 31 104 68 94 41 -10 75 -71 103 -187 35 -146
60 -203 105 -244 42 -38 96 -48 118 -21 7 8 16 61 21 118 9 109 18 146 44 167
18 15 29 9 153 -84 43 -33 112 -78 153 -100 107 -58 173 -123 214 -209 40 -83
40 -85 65 -282 23 -183 38 -224 79 -224 20 0 38 9 53 27 90 100 104 108 147
77 28 -19 60 -81 67 -131 8 -46 -11 -138 -61 -298 -51 -164 -53 -182 -21 -190
47 -12 99 14 168 86 46 49 73 69 90 69 84 0 64 -97 -84 -416 -105 -225 -120
-304 -58 -304 22 0 47 18 114 83 87 85 184 147 230 147 64 0 55 -168 -16 -307
-18 -37 -54 -104 -78 -148 l-44 -80 2 -99 c3 -122 -2 -133 -114 -262 -47 -55
-109 -135 -138 -179 -29 -44 -71 -97 -94 -118 -69 -62 -162 -118 -191 -115
-22 3 -26 9 -32 58 -4 30 -3 173 3 318 19 482 -22 848 -122 1088 -16 39 -68
141 -115 225 -269 485 -512 742 -859 909 -217 104 -448 166 -668 177 -131 6
-711 -12 -892 -28 -143 -12 -170 -22 -200 -69 -59 -93 -391 -320 -467 -320
-28 0 -49 15 -127 90 -67 66 -148 104 -216 103 -58 -1 -125 -26 -125 -47 0
-23 45 -53 116 -76 117 -39 204 -131 189 -200 -7 -34 -84 -143 -152 -217 l-48
-52 -195 19 c-107 11 -212 19 -234 20 l-39 0 7 -76 c11 -125 10 -124 113 -124
139 0 177 -36 153 -144 -25 -111 -76 -177 -153 -196 -99 -25 -211 -66 -221
-82 -14 -24 18 -57 119 -123 109 -71 120 -85 120 -149 -1 -94 -90 -203 -216
-266 -76 -38 -99 -57 -99 -81 0 -25 45 -46 124 -59 103 -16 141 -35 159 -78
22 -51 36 -128 44 -232 7 -102 1 -136 -27 -143 -25 -6 -26 -38 -2 -59 9 -9 36
-25 59 -37 50 -25 69 -51 78 -106 10 -57 27 -80 86 -111 37 -21 62 -45 95 -94
24 -36 62 -89 84 -119 60 -82 62 -118 11 -266 -23 -67 -46 -148 -51 -180 -10
-62 -23 -78 -55 -69 -26 8 -120 78 -210 154 -38 33 -92 71 -120 84 -56 28
-124 94 -183 178 -54 79 -66 128 -54 219 5 41 5 87 1 103 -5 16 -40 62 -79
102 -78 81 -104 130 -125 237 -35 184 -47 750 -20 977 22 192 47 269 106 337
15 18 31 50 34 70 10 57 25 103 53 158 32 64 100 165 111 165 11 0 36 64 45
115 13 74 38 140 69 179 17 21 37 57 44 78 7 22 31 66 53 97 120 177 303 311
446 327 107 12 136 34 168 131 22 65 75 115 187 173 220 114 442 156 589 109
47 -15 104 -22 204 -26 l140 -6 -21 34 c-74 119 -90 173 -60 197 70 56 218
-18 424 -211 122 -114 172 -150 197 -141 25 10 20 35 -30 138 -47 97 -63 168
-50 221 15 59 118 67 228 18z m-204 -841 c12 -7 44 -43 71 -80 66 -90 172
-172 223 -172 22 0 38 30 38 73 0 50 28 71 85 65 86 -10 115 -61 115 -198 0
-136 15 -152 97 -103 37 21 62 28 128 31 95 5 145 -13 145 -51 0 -13 22 -42
59 -77 97 -91 122 -165 141 -404 21 -273 28 -291 123 -298 85 -7 171 -50 215
-107 26 -35 32 -52 32 -91 0 -44 -5 -55 -45 -100 -25 -28 -45 -59 -45 -70 0
-25 37 -50 75 -50 101 -1 100 -39 -3 -123 -90 -73 -110 -100 -91 -124 8 -9 34
-25 59 -36 111 -48 109 -78 -20 -251 -93 -125 -104 -149 -103 -221 1 -46 -3
-65 -17 -80 -10 -11 -33 -51 -50 -90 -114 -250 -113 -249 -214 -248 -73 1
-136 25 -205 80 l-47 38 53 170 c29 94 62 213 73 265 59 290 50 573 -26 842
-60 217 -179 452 -286 569 -117 128 -380 288 -606 370 -113 41 -153 72 -193
151 -36 72 -97 140 -146 163 -31 15 -37 15 -50 2 -14 -14 -13 -23 10 -89 23
-67 24 -74 10 -91 -30 -32 -119 -47 -437 -72 -316 -25 -354 -38 -395 -140 -33
-84 -70 -135 -179 -245 -52 -52 -114 -120 -138 -152 -106 -137 -225 -361 -280
-528 -25 -76 -28 -98 -28 -215 1 -115 4 -138 26 -195 32 -81 45 -143 64 -293
16 -134 32 -174 72 -183 81 -20 271 -188 290 -258 8 -28 7 -60 -3 -124 -8 -48
-15 -92 -15 -98 0 -6 75 -3 222 12 123 13 223 22 224 21 1 -1 33 -54 71 -117
77 -127 100 -146 191 -157 l50 -6 11 36 c13 38 99 130 143 153 39 20 145 44
198 44 35 0 53 -6 80 -28 19 -16 45 -34 57 -40 31 -17 112 -15 169 5 130 44
146 108 42 174 -37 24 -48 37 -48 57 0 35 42 86 96 118 45 26 46 26 184 19
136 -7 139 -6 150 15 24 44 -13 150 -51 150 -5 0 -17 16 -25 36 -17 40 -9 106
26 225 25 85 42 99 126 107 63 6 70 9 83 36 22 47 0 123 -50 172 -53 51 -65
76 -73 151 -9 84 -37 167 -96 288 -50 103 -85 154 -182 270 -61 72 -118 172
-139 244 -7 24 -27 59 -45 77 -48 51 -94 44 -134 -21 -20 -33 -25 -35 -75 -35
-30 0 -84 6 -122 14 -108 23 -313 39 -436 34 -141 -5 -166 -18 -293 -150 -143
-151 -237 -286 -294 -427 -40 -97 -53 -173 -48 -277 3 -73 11 -105 41 -181 20
-50 41 -113 47 -138 14 -63 53 -117 144 -202 61 -57 94 -79 173 -113 105 -46
124 -57 190 -107 51 -38 141 -73 189 -73 29 0 44 9 95 61 85 86 226 148 339
149 66 1 119 15 146 41 30 28 30 40 -2 104 l-26 51 27 65 c49 118 57 151 57
249 1 162 -61 305 -190 442 -122 129 -280 181 -479 158 -120 -13 -190 -40
-253 -97 -93 -83 -130 -193 -130 -383 0 -139 13 -172 92 -246 95 -90 208 -134
342 -134 131 0 218 54 267 165 63 143 11 345 -111 430 -78 54 -224 46 -297
-18 -46 -40 -63 -82 -63 -152 0 -92 43 -148 123 -160 47 -7 101 9 95 28 -3 6
-29 26 -59 42 -29 17 -60 42 -68 57 -13 23 -13 28 2 52 28 42 87 66 162 66 81
0 131 -20 146 -57 16 -42 6 -170 -18 -225 -39 -87 -144 -138 -286 -138 -88 0
-124 19 -173 92 -37 54 -74 183 -74 254 0 162 239 335 443 322 83 -6 134 -28
193 -86 173 -167 254 -484 169 -658 -34 -70 -125 -151 -228 -205 -77 -40 -87
-43 -182 -47 -157 -6 -296 31 -449 122 -133 79 -291 258 -303 343 -5 39 26
239 53 348 24 91 69 178 126 240 60 66 193 173 257 205 65 34 207 46 395 32
257 -19 401 -70 527 -189 162 -153 249 -372 249 -629 0 -299 -105 -538 -314
-716 -140 -119 -238 -163 -456 -204 -155 -29 -253 -30 -347 -4 -39 11 -109 24
-155 29 -97 11 -151 29 -222 72 -176 108 -336 296 -411 484 -51 130 -68 239
-69 445 0 327 37 434 230 654 147 167 375 349 496 394 90 34 233 53 428 59
312 8 404 -14 654 -161 475 -280 645 -604 647 -1237 1 -178 -4 -199 -102 -414
-111 -245 -254 -447 -339 -482 -19 -8 -84 -63 -145 -123 -121 -118 -136 -128
-244 -160 -41 -12 -115 -40 -165 -62 -117 -51 -195 -68 -327 -68 -142 0 -259
22 -463 86 -190 61 -275 78 -312 64 -13 -5 -24 -13 -24 -18 0 -13 53 -83 85
-112 34 -32 63 -87 71 -138 14 -87 -63 -172 -154 -172 -39 0 -92 -21 -111 -43
-22 -27 -38 -20 -61 31 -43 91 -102 278 -107 340 -7 78 4 92 105 139 l74 33
-40 48 c-22 26 -114 124 -204 218 -90 94 -179 195 -198 224 -30 47 -97 222
-176 458 -37 112 -47 200 -41 372 6 181 40 394 88 545 62 198 189 432 322 593
108 131 211 203 486 344 251 127 501 211 725 243 126 18 450 16 484 -3z m6451
-611 c30 -19 81 -89 81 -111 0 -25 -41 -75 -98 -121 -60 -47 -69 -79 -22 -79
16 0 77 16 134 35 184 61 310 57 387 -13 63 -56 56 -75 -65 -175 -25 -21 -46
-45 -46 -53 0 -38 103 -33 129 5 7 12 19 21 27 21 19 0 60 -58 78 -113 36
-107 10 -190 -83 -263 -103 -82 -141 -95 -306 -105 -221 -14 -280 -31 -309
-93 -26 -55 -21 -88 24 -142 39 -48 110 -172 110 -193 0 -6 -5 -11 -11 -11
-29 0 -241 -115 -292 -158 -45 -39 -70 -52 -114 -61 -118 -23 -621 -259 -708
-332 -81 -68 -441 -303 -555 -362 -137 -73 -237 -113 -510 -207 -295 -102
-366 -129 -496 -188 -124 -56 -221 -84 -484 -142 -334 -73 -429 -105 -648
-211 -233 -115 -571 -207 -837 -229 -66 -5 -194 -14 -284 -20 -90 -6 -288 -26
-440 -45 -327 -41 -361 -43 -361 -16 0 74 367 226 715 296 129 26 272 79 426
156 79 39 184 85 232 100 48 16 164 67 256 114 178 90 168 83 304 239 33 38
81 74 152 117 57 34 141 95 187 136 96 85 148 118 221 140 60 17 128 54 175
94 44 39 74 45 125 25 103 -39 147 -12 217 136 22 47 47 92 55 98 42 35 47
-184 6 -236 -11 -15 -21 -40 -21 -57 0 -28 2 -29 33 -23 78 15 235 105 303
172 57 58 23 64 -76 14 -78 -40 -98 -42 -116 -14 -21 31 -14 76 24 158 36 78
82 130 152 174 30 20 82 61 115 93 33 32 72 60 87 64 14 4 64 -1 110 -10 151
-31 278 -8 319 59 24 40 24 68 -1 91 -24 22 -118 32 -148 16 -11 -6 -33 -41
-49 -81 -15 -38 -30 -70 -33 -69 -3 0 -22 22 -42 49 -50 66 -78 83 -111 71
-49 -19 -127 20 -127 63 0 12 9 35 19 52 31 51 130 80 341 99 84 8 504 34 507
31 1 0 -10 -43 -23 -95 -14 -51 -24 -100 -22 -109 8 -42 137 -26 189 24 62 59
74 115 38 185 -16 32 -18 44 -8 55 38 47 200 -31 245 -118 31 -59 98 -59 114
1 14 53 36 79 88 105 57 28 83 35 185 46 104 12 122 25 137 95 16 79 41 103
125 123 76 19 92 39 40 54 -16 5 -125 10 -242 11 -235 2 -250 6 -223 54 23 40
97 93 131 93 23 0 34 -8 55 -41 l26 -42 52 57 c37 42 61 60 86 65 l35 7 -3 61
-4 61 45 20 c51 23 59 34 76 113 13 62 67 161 107 197 28 24 48 23 93 -7z
m311 -1212 c18 -33 4 -68 -35 -86 -31 -15 -36 -15 -59 1 -34 21 -33 41 3 77
35 35 75 38 91 8z m-4141 -236 c6 -21 19 -71 28 -112 22 -90 35 -102 153 -134
151 -42 154 -49 83 -153 -26 -38 -59 -101 -74 -141 -15 -40 -38 -92 -52 -115
-97 -163 -389 -389 -706 -544 -173 -85 -220 -114 -300 -186 -74 -67 -150 -104
-249 -119 -145 -22 -160 6 -96 179 132 356 288 568 502 682 57 30 140 82 185
116 112 84 259 239 342 359 109 160 145 205 160 205 8 0 19 -16 24 -37z m3111
-493 c0 -42 -61 -68 -75 -33 -4 12 2 25 19 40 29 25 56 21 56 -7z m-247 -118
c45 -49 60 -148 32 -202 -9 -17 -17 -30 -19 -30 -3 0 -11 -3 -20 -6 -29 -11
-56 52 -56 133 0 110 23 149 63 105z m-4645 -172 c21 -13 32 -27 32 -43 0 -29
40 -85 109 -152 28 -27 51 -52 51 -55 0 -4 -27 -11 -59 -17 -76 -15 -132 -52
-176 -119 -39 -59 -69 -84 -100 -84 -30 0 -236 94 -267 123 -21 18 -28 34 -28
60 0 70 149 229 265 283 62 30 128 31 173 4z m4461 -92 c59 -52 59 -53 44 -81
-18 -36 -153 -178 -216 -229 -56 -44 -90 -50 -85 -16 2 15 21 31 63 52 67 35
100 80 111 153 5 36 1 52 -25 103 -18 33 -29 66 -25 71 14 24 74 0 133 -53z
m-327 -115 c35 -40 29 -113 -10 -128 -38 -15 -68 76 -42 126 13 24 32 24 52 2z
m-294 -206 c12 -24 12 -35 0 -64 -19 -52 -44 -64 -69 -34 -23 28 -25 78 -3
109 21 31 55 25 72 -11z m-4453 -36 c33 -20 99 -124 117 -184 16 -52 0 -84
-44 -91 -126 -18 -172 -30 -267 -74 l-107 -48 -82 63 c-46 35 -94 66 -107 69
-17 4 -42 -7 -102 -49 -43 -29 -118 -78 -167 -107 -99 -59 -156 -105 -156
-126 0 -39 -78 2 -168 89 -115 111 -192 232 -192 302 0 86 69 102 270 61 143
-29 364 -51 430 -43 25 3 74 19 110 35 58 26 283 104 335 115 48 11 102 6 130
-12z m4169 -17 c15 -40 -37 -141 -67 -131 -21 7 -19 79 3 115 21 34 54 43 64
16z m-350 -130 c3 -9 6 -40 6 -70 0 -81 14 -87 198 -87 219 0 322 28 481 131
95 62 135 54 87 -19 -74 -111 -319 -223 -686 -313 -80 -19 -264 -58 -410 -86
-312 -60 -519 -106 -685 -153 -118 -33 -120 -33 -123 -13 -1 12 -5 40 -8 63
-3 23 -16 58 -30 78 -33 50 -31 87 7 119 18 15 43 26 60 26 49 0 93 25 134 74
20 25 44 46 53 46 30 0 52 -31 52 -74 0 -56 -31 -103 -83 -125 -55 -24 -74
-46 -57 -66 18 -21 35 -19 66 10 15 14 37 27 48 29 102 20 146 32 220 62 61
25 113 38 178 45 160 17 309 59 338 94 8 10 16 56 19 116 5 84 9 103 25 115
28 20 102 19 110 -2z m-6428 -113 c69 -32 128 -81 150 -122 7 -15 14 -53 14
-84 l0 -55 78 6 c94 8 115 0 264 -97 141 -92 303 -169 470 -223 75 -25 145
-50 157 -58 29 -18 26 -36 -6 -44 -29 -8 -340 2 -547 16 -336 23 -675 32
-1066 26 -228 -3 -443 -8 -477 -12 -59 -5 -63 -4 -63 14 0 24 44 62 72 62 11
0 33 13 49 29 39 40 39 81 -1 123 -40 41 -36 65 17 101 61 43 87 39 144 -23
41 -45 51 -51 64 -40 21 17 19 37 -5 57 -47 40 -6 70 113 82 85 8 86 9 134 57
85 87 295 214 353 214 14 0 52 -13 86 -29z m5822 -21 c22 -43 -1 -140 -34
-140 -19 0 -44 58 -44 101 0 36 26 71 49 67 9 -2 21 -14 29 -28z m-799 -364
c23 -28 -28 -84 -63 -70 -19 7 -21 55 -4 72 16 16 53 15 67 -2z m-270 -60 c7
-8 16 -43 22 -77 13 -82 29 -99 91 -99 55 0 102 17 151 54 20 16 47 26 66 26
40 0 103 -28 98 -44 -6 -22 -144 -86 -267 -126 -118 -38 -402 -100 -456 -100
-22 0 -24 4 -24 44 0 25 -7 78 -16 118 -17 81 -12 149 13 169 13 12 23 6 68
-42 28 -31 64 -64 78 -74 25 -16 29 -16 52 -1 26 17 65 84 65 111 0 45 36 69
59 41z m-550 -42 c29 -21 66 -102 82 -183 15 -71 9 -81 -51 -81 -79 0 -143 79
-144 177 -1 84 55 127 113 87z m-309 -24 c30 -16 44 -77 45 -190 l0 -105 47
-24 c27 -12 46 -26 43 -31 -2 -4 -98 -10 -212 -14 -307 -10 -400 -22 -698 -91
-198 -46 -405 -44 -405 4 0 20 20 31 125 68 104 37 105 39 105 153 0 115 8
129 65 110 60 -20 80 -71 51 -128 -7 -15 -17 -38 -21 -51 -7 -24 -7 -24 44
-17 65 9 219 53 247 71 15 10 23 28 27 65 7 58 40 135 62 144 40 15 95 -76 95
-156 0 -57 35 -76 182 -99 141 -21 158 2 83 116 -25 38 -48 77 -51 88 -10 31
5 66 34 81 31 17 105 21 132 6z m-1299 -257 c73 -66 70 -101 -9 -127 -57 -19
-80 -14 -88 21 -11 40 2 116 22 130 25 19 29 17 75 -24z m-950 -20 c29 -27 87
-143 91 -183 3 -24 1 -25 -53 -24 -65 1 -150 41 -167 78 -16 36 3 117 34 144
30 26 55 23 95 -15z m-1107 -9 c21 -20 20 -32 -4 -72 -15 -24 -27 -32 -43 -30
-18 2 -23 10 -25 44 -5 62 36 95 72 58z m3824 -18 c-3 -22 -43 -35 -85 -28
-33 6 -28 17 18 40 47 23 71 19 67 -12z m-4141 -11 c6 -18 -25 -58 -38 -49
-13 8 -11 38 3 52 16 16 27 15 35 -3z m1949 -16 c10 -11 19 -41 22 -72 4 -46
1 -55 -23 -79 -49 -50 -185 -59 -185 -13 0 23 28 85 57 128 45 64 91 77 129
36z m-1302 -20 c30 -35 34 -74 9 -87 -23 -13 -56 3 -76 38 -21 35 -21 44 -1
64 23 23 39 20 68 -15z m347 -40 c18 -34 -3 -69 -40 -69 -45 0 -66 44 -35 74
22 23 61 20 75 -5z"/>
<path d="M2846 5169 c-22 -5 -48 -17 -59 -26 -17 -16 -17 -18 -1 -30 10 -7 29
-13 43 -13 52 0 106 -23 141 -59 49 -50 81 -71 110 -71 44 0 49 15 30 88 -16
61 -21 69 -58 90 -47 26 -146 37 -206 21z"/>
<path d="M10704 3687 c-49 -43 -44 -177 7 -177 33 0 58 18 79 60 27 52 25 86
-5 115 -30 31 -47 31 -81 2z"/>
<path d="M10382 3254 c5 -25 35 -41 49 -27 9 9 9 16 -1 28 -17 21 -52 20 -48
-1z"/>
<path d="M10076 2948 c-17 -25 -13 -38 13 -38 24 0 43 23 35 44 -9 22 -30 20
-48 -6z"/>
<path d="M9645 2895 c-31 -30 -35 -103 -7 -127 43 -38 141 -26 198 24 53 47
42 79 -39 113 -57 24 -123 20 -152 -10z"/>
<path d="M9112 2754 c-42 -21 -62 -60 -62 -119 0 -55 8 -56 93 -14 120 61 143
91 93 124 -37 24 -87 28 -124 9z"/>
<path d="M8830 2345 c-10 -12 -10 -18 0 -30 7 -8 19 -15 26 -15 19 0 56 38 49
50 -10 15 -61 12 -75 -5z"/>
<path d="M7755 2067 c-20 -15 -13 -37 11 -37 8 0 29 7 46 16 24 12 28 18 17
25 -20 13 -53 11 -74 -4z"/>
<path d="M7290 1696 c-28 -31 -21 -52 20 -61 40 -9 80 16 80 49 0 42 -64 50
-100 12z"/>
<path d="M7780 1585 c-83 -24 -90 -27 -90 -38 0 -15 132 -1 169 18 17 8 31 20
31 25 0 14 -56 11 -110 -5z"/>
<path d="M1591 1111 c-20 -13 -5 -60 22 -70 33 -13 72 -3 98 25 18 19 20 26 9
39 -14 17 -105 21 -129 6z"/>
<path d="M1472 878 c-16 -16 -15 -33 3 -48 21 -18 55 -3 55 25 0 32 -35 46
-58 23z"/>
<path d="M1704 862 c-29 -4 -57 -36 -52 -59 5 -28 78 -31 102 -4 30 33 -1 72
-50 63z"/>
</g>
</svg>
